<svg width="573" height="356" viewBox="0 0 573 356" fill="none" xmlns="http://www.w3.org/2000/svg">
<g opacity="0.8" clip-path="url(#clip0_339_447)">
<g opacity="0.5">
<path d="M124.784 138.739C124.771 138.57 124.711 138.392 124.61 138.169L114.525 113.348C114.453 113.14 114.397 113.158 114.278 113.349L98.4382 137.879C98.1337 138.332 98.1105 138.533 98.3495 139.097L109.736 163.669C110.01 164.231 110.066 164.267 110.401 163.625L124.498 139.635C124.706 139.265 124.806 139.018 124.783 138.737L124.784 138.739ZM122.293 136.042C122.348 136.551 122.347 137.094 122.281 137.664C122.016 139.943 120.813 141.661 119.601 141.492C118.389 141.323 117.622 139.34 117.886 137.061C118.151 134.783 119.342 133.065 120.555 133.234C121.464 133.361 122.132 134.515 122.293 136.042L122.293 136.042ZM116.459 122.067C116.514 122.576 116.514 123.131 116.447 123.701C116.183 125.979 114.99 127.685 113.778 127.516C112.566 127.347 111.788 125.365 112.052 123.086C112.317 120.808 113.521 119.101 114.733 119.27C115.642 119.396 116.298 120.54 116.459 122.067L116.459 122.067ZM117.542 144.024C117.597 144.533 117.585 145.089 117.519 145.659C117.254 147.937 116.062 149.643 114.849 149.474C113.637 149.305 112.871 147.322 113.135 145.043C113.399 142.764 114.592 141.059 115.804 141.228C116.713 141.354 117.381 142.497 117.542 144.024ZM112.887 111.893C112.87 111.848 112.796 111.84 112.645 111.823L83.221 108.96C82.9142 108.923 82.841 108.943 82.627 109.243L65.9509 133.047C65.5153 133.606 65.5323 133.712 66.1362 133.722L96.0292 137.16C96.4412 137.253 96.6465 137.094 96.808 136.846L112.768 112.139C112.856 112.012 112.901 111.938 112.884 111.893L112.887 111.893ZM111.387 130.012C111.442 130.521 111.442 131.076 111.375 131.646C111.111 133.925 109.918 135.63 108.706 135.461C107.494 135.292 106.727 133.309 106.992 131.03C107.256 128.752 108.449 127.046 109.661 127.215C110.57 127.342 111.226 128.485 111.387 130.012L111.387 130.012ZM112.645 152.188C112.7 152.697 112.699 153.252 112.633 153.821C112.369 156.1 111.176 157.805 109.964 157.637C108.752 157.468 107.973 155.485 108.238 153.207C108.502 150.928 109.707 149.221 110.919 149.39C111.828 149.517 112.483 150.661 112.645 152.188ZM107.716 113.847C107.734 113.932 107.739 114.026 107.743 114.114C107.793 115.169 106.925 116.404 105.414 117.226C103.401 118.322 101.011 118.264 100.082 117.105C99.1535 115.945 100.03 114.116 102.043 113.02C104.057 111.925 106.447 111.982 107.375 113.141C107.55 113.359 107.665 113.592 107.716 113.847ZM106.339 138.19C106.393 138.699 106.393 139.254 106.327 139.823C106.062 142.102 104.87 143.807 103.657 143.639C102.445 143.47 101.679 141.486 101.943 139.208C102.208 136.929 103.4 135.223 104.612 135.392C105.521 135.519 106.177 136.662 106.338 138.19L106.339 138.19ZM108.229 165.022C108.214 164.974 108.19 164.907 108.151 164.83L96.4493 139.596C96.1764 139.086 96.0885 139.111 95.6792 139.063L65.8797 135.627C65.4482 135.649 65.237 135.51 65.5171 135.993L77.737 160.787C78.0264 161.263 78.0781 161.355 78.5698 161.361L107.994 165.152C108.202 165.187 108.273 165.166 108.227 165.023L108.229 165.022ZM103.07 161.255C103.133 161.992 102.833 162.606 102.17 162.931C100.846 163.581 98.5448 162.818 97.0304 161.217C95.516 159.616 95.3661 157.791 96.6906 157.141C98.015 156.491 100.316 157.254 101.831 158.855C102.588 159.655 103.008 160.518 103.07 161.255ZM97.3573 129.817C97.4371 130.882 96.5552 132.141 95.0213 132.976C93.0076 134.072 90.6193 134.026 89.6905 132.867C88.7617 131.707 89.6494 129.877 91.6631 128.781C93.6768 127.685 96.0548 127.744 96.9836 128.903C97.1577 129.121 97.2733 129.354 97.3247 129.609C97.3389 129.678 97.3521 129.746 97.3573 129.817ZM93.046 120.821C93.1258 121.886 92.2439 123.145 90.71 123.98C88.6963 125.076 86.3079 125.03 85.3792 123.871C84.4504 122.711 85.3381 120.881 87.3518 119.785C89.3655 118.689 91.7435 118.748 92.6723 119.907C92.8464 120.125 92.962 120.357 93.0134 120.613C93.0276 120.682 93.0408 120.75 93.046 120.821ZM88.7838 111.961C88.801 112.046 88.8062 112.14 88.8107 112.228C88.8608 113.283 87.9791 114.507 86.4688 115.329C84.4551 116.425 82.0784 116.378 81.1496 115.219C80.2208 114.059 81.0969 112.23 83.1106 111.134C85.1243 110.038 87.5139 110.096 88.4427 111.255C88.6168 111.473 88.7323 111.705 88.7838 111.961ZM90.0617 152.653C90.1108 153.376 89.8113 153.987 89.1594 154.306C87.835 154.956 85.5326 154.182 84.0182 152.581C82.5038 150.98 82.3539 149.154 83.6783 148.505C85.0028 147.855 87.3051 148.629 88.8195 150.23C89.4821 150.931 89.8866 151.672 90.0185 152.341C90.0398 152.448 90.0547 152.55 90.0617 152.653ZM78.0963 127.47C78.1135 127.555 78.1188 127.65 78.1232 127.737C78.1733 128.792 77.3044 130.027 75.7941 130.849C73.7805 131.945 71.3909 131.888 70.4621 130.728C69.5333 129.569 70.4106 127.751 72.4244 126.655C74.438 125.56 76.8264 125.605 77.7552 126.765C77.9293 126.982 78.0449 127.215 78.0963 127.47ZM76.6313 143.248C76.6935 143.986 76.4052 144.598 75.743 144.923C74.4186 145.573 72.1173 144.81 70.6029 143.209C69.0885 141.608 68.927 139.784 70.2515 139.134C71.5759 138.485 73.8771 139.247 75.3916 140.848C76.1489 141.649 76.5691 142.511 76.6313 143.248Z" fill="#DC2626"/>
</g>
</g>
<g opacity="0.8" clip-path="url(#clip1_339_447)">
<path d="M26.8869 202.655C26.7456 202.96 26.6762 203.325 26.6343 203.808L19.8872 256.42C19.8078 256.847 19.9222 256.871 20.3135 256.657L71.4838 229.761C72.4494 229.276 72.6848 228.952 72.8218 227.746L77.0811 174.299C77.1566 173.063 77.0938 172.947 75.892 173.727L28.2527 201.39C27.534 201.825 27.1216 202.153 26.8874 202.661L26.8869 202.655ZM28.56 209.729C28.9602 208.798 29.4917 207.862 30.1595 206.944C32.8314 203.272 36.5773 201.479 38.5034 202.949C40.4295 204.419 39.8227 208.585 37.1507 212.257C34.4788 215.93 30.754 217.732 28.8279 216.262C27.3834 215.159 27.353 212.519 28.5598 209.729L28.56 209.729ZM25.0306 239.502C25.4308 238.571 25.9715 237.614 26.6394 236.696C29.3113 233.024 33.0268 231.243 34.9529 232.713C36.879 234.183 36.2933 238.358 33.6214 242.03C30.9495 245.703 27.2128 247.474 25.2867 246.005C23.8421 244.902 23.8236 242.292 25.0305 239.502L25.0306 239.502ZM44.5159 200.585C44.9161 199.654 45.478 198.706 46.1459 197.788C48.8177 194.116 52.5333 192.335 54.4594 193.805C56.3854 195.275 55.7787 199.441 53.1066 203.113C50.4348 206.786 46.7193 208.567 44.7932 207.097C43.3487 205.994 43.3089 203.375 44.5159 200.585ZM21.297 260.521C21.2813 260.616 21.4022 260.702 21.6464 260.877L69.6028 294.428C70.0959 294.79 70.2408 294.828 70.9022 294.518L122.809 269.686C124.103 269.146 124.177 268.946 123.145 268.343L74.9389 233.343C74.3195 232.781 73.8099 232.857 73.2912 233.126L21.7408 260.212C21.4658 260.347 21.3165 260.43 21.3007 260.524L21.297 260.521ZM41.5037 230.733C41.9039 229.802 42.4446 228.846 43.1125 227.928C45.7844 224.255 49.4999 222.474 51.426 223.944C53.3521 225.414 52.7453 229.58 50.0733 233.252C47.4014 236.925 43.6859 238.706 41.7599 237.236C40.3152 236.133 40.2968 233.524 41.5036 230.733L41.5037 230.733ZM60.9005 191.269C61.3006 190.338 61.8413 189.382 62.5092 188.464C65.1812 184.791 68.8966 183.01 70.8227 184.48C72.7488 185.95 72.1632 190.125 69.4912 193.798C66.8193 197.47 63.0827 199.242 61.1566 197.772C59.7121 196.67 59.6935 194.06 60.9005 191.269ZM32.1127 262.18C32.1658 262.017 32.248 261.849 32.3263 261.693C33.2657 259.825 35.9652 258.541 39.3689 258.592C43.9071 258.661 47.9722 261.083 48.4463 263.986C48.9203 266.889 45.6306 269.191 41.0923 269.122C36.5541 269.054 32.489 266.631 32.015 263.728C31.926 263.184 31.9534 262.67 32.1127 262.18ZM58.1624 221.541C58.5626 220.61 59.1033 219.654 59.7712 218.736C62.4431 215.063 66.1586 213.282 68.0847 214.752C70.0108 216.222 69.404 220.388 66.732 224.06C64.0601 227.733 60.3446 229.514 58.4185 228.044C56.974 226.942 56.9555 224.332 58.1623 221.542L58.1624 221.541ZM80.996 173.431C80.9753 173.528 80.9516 173.667 80.9441 173.837L76.5839 228.733C76.5581 229.879 76.7339 229.921 77.3933 230.401L125.441 265.306C126.206 265.689 126.435 266.133 126.421 265.029L129.461 210.387C129.425 209.285 129.425 209.077 128.583 208.588L81.5283 173.436C81.2035 173.174 81.0612 173.14 80.9998 173.432L80.996 173.431ZM86.229 184.944C86.8388 183.612 87.953 182.845 89.4109 182.929C92.3265 183.097 95.5533 186.65 96.6079 190.883C97.6627 195.117 96.1458 198.411 93.2301 198.243C90.3144 198.075 87.0876 194.522 86.0327 190.288C85.5053 188.172 85.6192 186.276 86.229 184.944ZM65.5076 244.714C66.4059 242.8 69.1516 241.486 72.6085 241.538C77.1467 241.606 81.2211 244.008 81.6951 246.911C82.1692 249.813 78.8583 252.107 74.32 252.038C69.7818 251.969 65.7378 249.556 65.2638 246.653C65.1749 246.109 65.2021 245.595 65.3616 245.105C65.4042 244.972 65.4477 244.842 65.5076 244.714ZM64.1937 264.421C65.0919 262.506 67.8377 261.192 71.2946 261.244C75.8328 261.313 79.9072 263.714 80.3812 266.617C80.8553 269.52 77.5444 271.813 73.0061 271.744C68.4679 271.675 64.4239 269.262 63.9499 266.36C63.861 265.815 63.8882 265.301 64.0477 264.811C64.0903 264.678 64.1338 264.548 64.1937 264.421ZM62.9275 283.845C62.9805 283.681 63.0633 283.513 63.1411 283.357C64.0805 281.49 66.7918 280.235 70.1955 280.287C74.7337 280.355 78.787 282.747 79.261 285.65C79.7351 288.553 76.4454 290.855 71.9071 290.787C67.3689 290.718 63.3038 288.296 62.8297 285.393C62.7408 284.849 62.7681 284.335 62.9275 283.845ZM100.297 212.428C100.916 211.134 102.025 210.373 103.461 210.455C106.376 210.623 109.594 214.197 110.648 218.431C111.703 222.664 110.186 225.958 107.271 225.79C104.355 225.623 101.137 222.048 100.083 217.815C99.6213 215.963 99.6447 214.291 100.068 213.009C100.136 212.803 100.209 212.613 100.297 212.428ZM96.4406 267.492C96.4936 267.329 96.5764 267.161 96.6542 267.005C97.5936 265.138 100.293 263.853 103.697 263.904C108.235 263.973 112.3 266.395 112.774 269.298C113.248 272.201 109.968 274.482 105.429 274.413C100.891 274.345 96.8168 271.944 96.3428 269.041C96.2539 268.496 96.2812 267.982 96.4406 267.492ZM114.311 241.708C114.921 240.376 116.014 239.6 117.472 239.684C120.388 239.851 123.614 243.404 124.669 247.638C125.724 251.871 124.228 255.175 121.312 255.007C118.397 254.839 115.17 251.286 114.115 247.052C113.588 244.936 113.701 243.04 114.311 241.708Z" fill="white"/>
</g>
<g opacity="0.8">
<path d="M264.401 -21.1577C263.453 -20.6836 262.564 -19.9172 261.51 -18.8051L141.36 98.0276C140.323 98.9288 140.56 99.2115 141.947 99.4532L321.377 133.573C324.719 134.272 325.938 133.934 328.649 131.221L444.289 7.43133C446.906 4.52346 446.979 4.1139 442.473 3.67881L270.266 -21.6006C267.635 -21.9395 265.968 -21.9376 264.392 -21.1434L264.401 -21.1577ZM254.628 -0.376363C257.449 -1.89198 260.602 -3.15949 264.059 -4.11618C277.888 -7.94295 290.677 -5.00997 292.55 2.4126C294.422 9.83516 284.729 18.944 270.899 22.7703C257.07 26.597 244.315 23.7287 242.443 16.3061C241.038 10.739 246.155 4.15071 254.627 -0.376082L254.628 -0.376363ZM187.349 66.3068C190.17 64.7912 193.388 63.4895 196.845 62.533C210.674 58.7063 223.365 61.6087 225.237 69.0313C227.109 76.4541 217.45 85.6273 203.62 89.4538C189.791 93.2806 177.067 90.3135 175.194 82.8909C173.79 77.3238 178.877 70.8342 187.349 66.3074L187.349 66.3068ZM312.067 8.39049C314.888 6.87492 318.14 5.63785 321.597 4.68133C335.426 0.854382 348.116 3.75707 349.989 11.1796C351.861 18.6023 342.167 27.711 328.338 31.5374C314.509 35.3642 301.818 32.4616 299.946 25.0391C298.542 19.4722 303.594 12.9178 312.067 8.39049ZM136.78 110.943C136.555 111.146 136.685 111.596 136.945 112.509L189.553 289.786C190.06 291.651 190.344 292.03 192.589 292.563L369.78 333.236C374.042 334.448 374.619 334.099 373.252 330.577L322.876 149.227C322.449 146.619 321.04 145.804 319.228 145.449L138.486 111.05C137.54 110.844 137.008 110.754 136.784 110.957L136.78 110.943ZM245.329 77.019C248.15 75.5034 251.368 74.2017 254.825 73.2453C268.654 69.4185 281.344 72.321 283.217 79.7436C285.089 87.1663 275.395 96.275 261.566 100.101C247.737 103.928 235.046 101.026 233.174 93.6032C231.77 88.0361 236.856 81.5464 245.328 77.0196L245.329 77.019ZM370.903 17.5762C373.724 16.0607 376.942 14.7589 380.398 13.8023C394.228 9.97566 406.918 12.8781 408.79 20.3006C410.663 27.7234 401.003 36.8966 387.174 40.7232C373.345 44.5499 360.62 41.5829 358.748 34.1603C357.344 28.5935 362.43 22.1036 370.903 17.5762ZM160.263 136.315C160.716 136.015 161.25 135.761 161.75 135.53C167.745 132.759 176.948 134.891 185.263 141.711C196.351 150.806 201.639 164.791 197.103 172.901C192.567 181.011 179.904 180.235 168.816 171.141C157.729 162.046 152.44 148.062 156.977 139.951C157.827 138.43 158.906 137.213 160.263 136.315ZM304.6 87.0497C307.421 85.5342 310.639 84.2324 314.096 83.276C327.925 79.449 340.615 82.3517 342.487 89.7743C344.36 97.197 334.666 106.306 320.837 110.132C307.008 113.959 294.317 111.056 292.445 103.634C291.041 98.0668 296.127 91.5772 304.599 87.0502L304.6 87.0497ZM455.677 12.9841C455.435 13.1835 455.103 13.4805 454.749 13.8874L336.01 141.061C333.693 143.843 334.045 144.294 334.731 146.779L384.901 327.581C386.041 330.032 385.735 331.582 387.871 328.824L502.846 199.682C504.923 196.885 505.332 196.37 504.213 193.505L456.982 14.0445C456.696 12.7559 456.409 12.394 455.684 12.9944L455.677 12.9841ZM445.975 51.7453C450.103 49.6504 454.366 49.9455 457.807 53.02C464.687 59.1687 465.679 74.3003 459.961 86.8431C454.244 99.386 444.015 104.548 437.135 98.3994C430.255 92.2507 429.263 77.1191 434.98 64.5753C437.839 58.3037 441.848 53.8402 445.975 51.7453ZM277.192 158.798C283.178 155.83 292.552 157.98 300.998 164.907C312.085 174.002 317.438 187.952 312.902 196.063C308.366 204.173 295.669 203.333 284.581 194.238C273.494 185.144 268.24 171.223 272.776 163.113C273.626 161.592 274.705 160.375 276.063 159.476C276.43 159.231 276.793 158.995 277.192 158.798ZM235.189 204.945C241.175 201.977 250.549 204.127 258.995 211.054C270.082 220.149 275.435 234.099 270.899 242.21C266.363 250.32 253.665 249.48 242.578 240.385C231.491 231.29 226.237 217.37 230.773 209.26C231.623 207.739 232.701 206.521 234.06 205.623C234.427 205.378 234.79 205.142 235.189 204.945ZM193.858 250.487C194.311 250.188 194.846 249.935 195.345 249.702C201.341 246.932 210.512 249.162 218.828 255.983C229.915 265.077 235.234 278.963 230.698 287.073C226.162 295.184 213.499 294.408 202.412 285.313C191.324 276.219 186.036 262.234 190.572 254.123C191.423 252.603 192.501 251.386 193.858 250.487ZM426.715 147.375C430.789 145.391 435.03 145.692 438.417 148.718C445.297 154.867 446.224 170.033 440.507 182.576C434.79 195.118 424.561 200.281 417.681 194.132C410.8 187.983 409.873 172.817 415.59 160.275C418.092 154.787 421.437 150.699 425.004 148.361C425.577 147.985 426.133 147.659 426.715 147.375ZM308.889 275.957C309.342 275.657 309.877 275.405 310.376 275.172C316.371 272.401 325.573 274.533 333.889 281.353C344.977 290.448 350.265 304.433 345.729 312.543C341.193 320.653 328.594 319.843 317.507 310.748C306.419 301.654 301.066 287.703 305.602 279.593C306.453 278.073 307.531 276.855 308.889 275.957ZM403.788 247.34C407.916 245.245 412.144 245.475 415.585 248.55C422.465 254.698 423.457 269.83 417.739 282.373C412.022 294.916 401.827 300.143 394.947 293.994C388.067 287.845 387.075 272.713 392.792 260.17C395.651 253.898 399.66 249.435 403.788 247.34Z" fill="#5C00D0" fill-opacity="0.38"/>
</g>
<defs>
<clipPath id="clip0_339_447">
<rect width="58.4529" height="58.7902" fill="white" transform="translate(121.396 105.084) rotate(84.2517)"/>
</clipPath>
<clipPath id="clip1_339_447">
<rect width="115.724" height="116.392" fill="white" transform="translate(0 263.987) rotate(-66.3282)"/>
</clipPath>
</defs>
</svg>
