<svg
                                    xmlns="http://www.w3.org/2000/svg"
                                    width="189"
                                    height="40"
                                    viewBox="0 0 189 40"
                                    fill="none">
                                    <path
                                        d="M25.4668 7L20.2725 8.02321L23.894 12.667L26.4978 12.1423L25.4668 7ZM16.3867 8.78406L13.7829 9.29566L17.4176 13.9263L20.0082 13.4147L16.3867 8.78406ZM9.91035 10.0434L7.30659 10.5812L10.9413 15.2119L13.5318 14.7003L9.91035 10.0434ZM3.42078 11.3552L2.12551 11.6044C1.43873 11.7406 0.834469 12.1418 0.445411 12.7197C0.0563521 13.2977 -0.0857049 14.0053 0.0504309 14.6872L0.565896 17.2583L7.04225 15.9859L3.42078 11.3552ZM0.565896 17.2583V30.3764C0.565896 31.0722 0.844397 31.7395 1.34013 32.2316C1.83587 32.7236 2.50823 33 3.20931 33H24.3566C25.8237 33 27 31.8325 27 30.3764V17.2583H0.565896Z"
                                        fill="white" />
                                    <path
                                        d="M55.6112 16.875H50.6339C50.543 16.2311 50.3574 15.6591 50.0771 15.1591C49.7968 14.6515 49.437 14.2197 48.9976 13.8636C48.5582 13.5076 48.0506 13.2348 47.4748 13.0455C46.9066 12.8561 46.2892 12.7614 45.6226 12.7614C44.418 12.7614 43.3688 13.0606 42.4748 13.6591C41.5809 14.25 40.8877 15.1136 40.3953 16.25C39.9029 17.3788 39.6566 18.75 39.6566 20.3636C39.6566 22.0227 39.9029 23.4167 40.3953 24.5455C40.8953 25.6742 41.5923 26.5265 42.4862 27.1023C43.3801 27.678 44.4142 27.9659 45.5885 27.9659C46.2476 27.9659 46.8574 27.8788 47.418 27.7045C47.9862 27.5303 48.49 27.2765 48.9294 26.9432C49.3688 26.6023 49.7324 26.1894 50.0203 25.7045C50.3157 25.2197 50.5203 24.6667 50.6339 24.0455L55.6112 24.0682C55.4824 25.1364 55.1604 26.1667 54.6453 27.1591C54.1377 28.1439 53.4521 29.0265 52.5885 29.8068C51.7324 30.5795 50.7097 31.1932 49.5203 31.6477C48.3385 32.0947 47.0013 32.3182 45.5089 32.3182C43.4332 32.3182 41.5771 31.8485 39.9407 30.9091C38.312 29.9697 37.0241 28.6098 36.0771 26.8295C35.1377 25.0492 34.668 22.8939 34.668 20.3636C34.668 17.8258 35.1453 15.6667 36.0998 13.8864C37.0544 12.1061 38.3498 10.75 39.9862 9.81818C41.6226 8.87879 43.4635 8.40909 45.5089 8.40909C46.8574 8.40909 48.1074 8.59848 49.2589 8.97727C50.418 9.35606 51.4445 9.90909 52.3385 10.6364C53.2324 11.3561 53.9597 12.2386 54.5203 13.2841C55.0885 14.3295 55.4521 15.5265 55.6112 16.875ZM61.9801 8.72727V32H57.0596V8.72727H61.9801ZM83.4143 8.72727V32H79.1643L69.0393 17.3523H68.8688V32H63.9484V8.72727H68.2665L78.312 23.3636H78.5165V8.72727H83.4143ZM85.3996 32V8.72727H101.081V12.7841H90.3201V18.3295H100.275V22.3864H90.3201V27.9432H101.127V32H85.3996ZM108.152 32L101.493 8.72727H106.868L110.72 24.8977H110.913L115.163 8.72727H119.766L124.004 24.9318H124.209L128.061 8.72727H133.436L126.777 32H121.982L117.55 16.7841H117.368L112.947 32H108.152ZM135.657 32H130.384L138.419 8.72727H144.759L152.782 32H147.509L141.68 14.0455H141.498L135.657 32ZM135.328 22.8523H147.782V26.6932H135.328V22.8523ZM154.802 8.72727L160.427 26.4091H160.643L166.279 8.72727H171.733L163.711 32H157.37L149.336 8.72727H154.802ZM172.455 32V8.72727H188.136V12.7841H177.375V18.3295H187.33V22.3864H177.375V27.9432H188.182V32H172.455Z"
                                        fill="white" />
</svg>